PathFileType	4	(X/Y/Z)	C:\Users\Biomechanik\SynologyDrive\AlexP\Athlete_03\Athlete_3_25_03_31\Walking_08\marker_experimental.trc
DataRate	CameraRate	NumFrames	NumMarkers	Units	OrigDataRate	OrigDataStartFrame	OrigNumFrames
200.000000	200.000000	4	53	mm	200.000000	0	222
Frame#	Time	GLAB			RFHD			LFHD			C7			T6			SPINMOL			SPINM2			SPINM3			T12			BELTOL			BELT2			BELT3			SACROL			SACR2			SACR3			LTHOL			LTH2			LTH3			LSHAOL			LSHA2			LSHA3			LHEE			LTOE			LM5			RTHOL			RTH2			RTH3			RSHAOL			RSHA2			RSHA3			RHEE			RTOE			RM5			STRN			XIPH			LACR			LUAOL			LUA2			LUA3			LLAOL			LLA2			LLA3			LWRR			LWRU			RACR			RUAOL			RUA2			RUA3			RLAOL			RLA2			RLA3			RWRR			RWRU			
		X1	Y1	Z1	X2	Y2	Z2	X3	Y3	Z3	X4	Y4	Z4	X5	Y5	Z5	X6	Y6	Z6	X7	Y7	Z7	X8	Y8	Z8	X9	Y9	Z9	X10	Y10	Z10	X11	Y11	Z11	X12	Y12	Z12	X13	Y13	Z13	X14	Y14	Z14	X15	Y15	Z15	X16	Y16	Z16	X17	Y17	Z17	X18	Y18	Z18	X19	Y19	Z19	X20	Y20	Z20	X21	Y21	Z21	X22	Y22	Z22	X23	Y23	Z23	X24	Y24	Z24	X25	Y25	Z25	X26	Y26	Z26	X27	Y27	Z27	X28	Y28	Z28	X29	Y29	Z29	X30	Y30	Z30	X31	Y31	Z31	X32	Y32	Z32	X33	Y33	Z33	X34	Y34	Z34	X35	Y35	Z35	X36	Y36	Z36	X37	Y37	Z37	X38	Y38	Z38	X39	Y39	Z39	X40	Y40	Z40	X41	Y41	Z41	X42	Y42	Z42	X43	Y43	Z43	X44	Y44	Z44	X45	Y45	Z45	X46	Y46	Z46	X47	Y47	Z47	X48	Y48	Z48	X49	Y49	Z49	X50	Y50	Z50	X51	Y51	Z51	X52	Y52	Z52	X53	Y53	Z53	

1	0	-485.3621826171877	1578.032592773438	201.4557647705077	-537.6843872070314	1597.466918945312	266.5306091308593	-530.6402587890626	1600.89111328125	129.201919555664	-703.2534790039064	1412.493041992188	181.4149322509764	-765.6807861328126	1248.426635742188	177.9511260986327	-775.8475952148439	1208.4306640625	157.283966064453	-780.1438598632814	1201.978271484375	207.1757049560545	-773.9719848632814	1144.515747070312	174.1124572753905	-753.2723388671876	1077.393798828125	178.8805847167967	-791.4047851562501	1044.334838867188	169.8937377929686	-786.2660522460939	1040.622192382812	219.9127044677733	-797.0564575195314	981.7833862304688	190.1146545410155	-782.9598388671876	938.5534057617188	175.443878173828	-772.3312988281251	931.4722290039062	225.1465759277342	-799.1068725585938	877.682861328125	197.1130218505858	-771.6508178710938	678.1302490234375	2.513103723525859	-828.3958740234375	639.410888671875	42.6892814636229	-788.1568603515625	621.3697509765625	20.20926856994614	-891.1568603515625	341.1306152343749	27.82357788085921	-958.008056640625	300.6148681640624	41.8174743652342	-910.4304809570312	283.5752563476562	38.28407669067366	-1044.2470703125	125.7349472045898	137.283981323242	-842.5841064453125	39.76631546020503	131.376495361328	-890.6223754882812	32.02239990234369	32.34179306030257	-602.3151855468751	643.5012817382812	363.0520935058593	-529.5605468750001	614.877197265625	377.3829345703124	-569.3609619140626	593.8928833007812	354.2501525878905	-469.8433837890626	318.9630126953124	359.8996276855468	-407.8482055664063	272.6569519042969	365.1184692382812	-453.0986022949219	260.9515380859375	348.4097900390624	-369.8848266601563	47.50532531738279	258.4183044433593	-180.9819793701172	141.0733489990234	263.5834655761718	-208.3235473632813	94.61635589599608	362.8640747070312	-535.3734741210939	1304.533081054688	182.9254913330077	-524.7436523437501	1159.666870117188	176.9350280761718	-623.5094604492189	1377.099487304688	9.67510890960682	-605.5724487304689	1232.084350585938	-96.15708160400402	-604.1481323242189	1169.69189453125	-117.4586029052736	-561.8533325195314	1184.307739257812	-96.10623168945322	-480.2021484375001	1001.3388671875	-146.8814544677735	-470.3415222167969	924.7742919921875	-128.7757415771485	-435.5398864746094	959.7992553710938	-138.9438476562501	-354.5584716796876	896.0685424804688	-125.0399475097657	-333.0433044433594	933.4278564453125	-58.96864318847663	-623.385681152344	1359.32421875	352.4246826171874	-668.7497558593752	1214.672485351562	446.9424743652343	-656.6414794921877	1150.675048828125	458.8592529296874	-707.1669921875002	1163.028564453125	464.7991333007811	-711.3944091796877	943.9703979492188	505.0292968749999	-670.7341918945314	888.9281616210938	544.0979614257811	-708.2008666992189	881.6766967773438	512.4510498046874	-683.2319946289064	797.2858276367188	536.2025756835936	-632.4664306640626	775.8338623046875	475.8695983886718	
2	0.005	-481.3663024902345	1577.681030273438	202.3181762695312	-533.6836547851564	1597.001098632812	267.4313049316405	-526.6729736328126	1600.6142578125	130.1067810058593	-699.1537475585939	1412.090209960938	182.2198028564452	-761.5950927734376	1248.0615234375	178.5789337158202	-771.7784423828126	1208.079833984375	157.8919219970702	-776.0437011718751	1201.59619140625	207.7792510986327	-769.9064331054689	1144.148803710938	174.6761016845702	-749.1578979492189	1076.970092773438	179.3620147705077	-787.2989501953126	1043.794555664062	170.4950256347655	-782.1101684570314	1040.074951171875	220.5093688964842	-792.8900146484376	981.2341918945312	190.7076873779295	-778.8132934570314	938.0048217773438	175.8769378662108	-768.1459960937501	930.9136962890625	225.5751800537108	-794.83349609375	877.09228515625	197.521286010742	-767.8077392578125	677.943603515625	2.71036672592149	-824.5635375976562	639.2776489257812	42.94227981567368	-784.3724365234375	621.20068359375	20.38616180419907	-888.462646484375	341.6186828613281	27.68632507324202	-955.6160278320312	301.6792297363281	41.58794403076154	-908.0668334960938	284.2737731933593	38.12673187255843	-1043.15966796875	127.6205825805663	137.0878448486326	-842.533447265625	39.582592010498	131.4085845947264	-890.3184814453125	32.13863754272455	32.29312133789046	-597.4062500000001	643.5015869140625	363.4916687011718	-524.4409790039064	614.9505004882812	377.4736022949218	-564.4336547851564	593.8421020507812	354.5816040039061	-466.1145935058594	318.6441345214843	359.8778991699218	-404.4707031250001	271.8761901855469	365.1128234863281	-449.7641906738282	260.5411987304688	348.3155822753906	-368.1114196777344	46.91621780395506	258.2903442382812	-178.5201873779297	138.6181640625	263.4594726562499	-206.300765991211	92.61798095703124	362.7505493164062	-531.2353515625001	1304.140625	183.518814086914	-520.6485595703126	1159.244506835938	177.4063262939452	-619.4338378906251	1376.914306640625	10.40385913848866	-601.7036132812501	1231.9150390625	-95.51600646972668	-600.2871093750001	1169.450073242188	-116.7289581298829	-558.1030273437501	1184.04541015625	-95.49459075927744	-476.7816162109376	1001.010009765625	-146.3754119873048	-466.8924255371094	924.4579467773438	-128.2203979492188	-432.1203613281251	959.4806518554688	-138.4706573486329	-351.1058654785157	895.7405395507812	-124.6802978515626	-329.4439086914063	933.1820678710938	-58.69079971313483	-619.1353759765627	1358.71142578125	353.1063537597655	-664.389831542969	1213.935913085938	447.5209045410155	-652.3018188476565	1149.9443359375	459.3539733886718	-702.7166137695315	1162.2431640625	465.3452758789061	-707.0090942382815	943.1692504882812	505.2992858886718	-666.3048095703126	888.044921875	544.2056274414061	-703.8379516601564	880.859130859375	512.6393432617186	-678.8800659179689	796.4408569335938	536.2669067382811	-628.3008422851564	775.0014038085938	475.7810974121093	
3	0.01	-476.7707824707033	1577.302856445312	203.308624267578	-529.0814208984376	1596.496215820312	268.4646911621093	-522.1106567382814	1600.3173828125	131.1440887451171	-694.4424438476564	1411.652221679688	183.1511993408202	-756.8922119140626	1247.66357421875	179.3059997558592	-767.0928344726564	1207.696411132812	158.5955200195311	-771.3241577148439	1201.178100585938	208.4784393310545	-765.2220458984376	1143.748168945312	175.3311157226561	-744.4152221679689	1076.506591796875	179.9222564697264	-782.5496215820314	1043.185302734375	171.1762390136717	-777.3102416992189	1039.46044921875	221.1858978271483	-788.0683593750001	980.6157836914062	191.3814086914061	-774.0287475585939	937.3878173828125	176.3709259033202	-763.3182983398439	930.2926635742188	226.0645599365233	-789.8917236328125	876.4268188476562	197.9921722412108	-763.3291625976562	677.7232666015625	2.935834169387677	-820.0882568359375	639.1087646484375	43.23528671264634	-779.9501342773438	620.9962158203125	20.59250450134263	-885.2896118164062	342.1941223144531	27.52669906616195	-952.7880859375	302.9220886230468	41.3365173339842	-905.2899169921875	285.0893859863281	37.95402908325179	-1041.794921875	129.8379821777343	136.8735046386717	-842.4853515625	39.37067413330073	131.4545288085936	-889.95947265625	32.27750015258783	32.23992538452132	-591.7930908203126	643.5382080078125	364.0030212402343	-518.5833740234376	615.0599365234375	377.5779724121093	-558.7958374023439	593.8067016601562	354.980499267578	-461.8553161621094	318.3151550292969	359.8702392578124	-400.6109008789063	271.0075988769531	365.0921325683593	-445.9691467285157	260.1112670898438	348.2267761230468	-366.1707153320313	46.32022857666013	258.1453857421874	-175.7735290527344	135.7479858398438	263.3222961425781	-204.0693359375001	90.28524017333983	362.6151428222656	-526.4755249023439	1303.716918945312	184.210235595703	-515.9201049804689	1158.796508789062	177.957046508789	-614.7455444335939	1376.719970703125	11.24639892578114	-597.2571411132814	1231.737426757812	-94.77406311035168	-595.8637695312501	1169.197387695312	-115.8978347778321	-553.7944335937501	1183.75634765625	-94.78746795654307	-472.8801269531251	1000.631408691406	-145.791488647461	-462.9699401855469	924.0906372070312	-127.5817260742188	-428.2268066406251	959.104248046875	-137.9278869628907	-347.1862792968751	895.3395385742188	-124.2705841064454	-325.3493347167969	932.8682861328125	-58.37407684326178	-614.2491455078127	1358.030639648438	353.8995971679686	-659.3633422851565	1213.105834960938	448.1900329589843	-647.2974853515627	1149.119506835938	459.9273681640624	-697.591247558594	1161.356811523438	465.9830932617186	-701.9450683593752	942.26318359375	505.6102600097655	-661.1883544921876	887.0439453125	544.3333129882811	-698.7969360351564	879.93408203125	512.8558959960936	-673.8509521484376	795.4862060546875	536.3381347656249	-623.4894409179689	774.0651245117188	475.673126220703	
4	0.015	-471.6111145019533	1576.9091796875	204.4188079833984	-523.9131469726564	1595.966430664062	269.6219482421874	-516.9885864257814	1600.010009765625	132.304702758789	-689.1567382812501	1411.190795898438	184.2037658691405	-751.6072387695314	1247.243041992188	180.1281433105467	-761.8254394531251	1207.289794921875	159.3905487060545	-766.0205078125001	1200.73388671875	209.2692260742186	-759.9523925781251	1143.323852539062	176.0742340087889	-739.0779418945314	1076.0146484375	180.5584106445311	-777.1848754882814	1042.516235351562	171.9282836914061	-771.8970336914064	1038.788940429688	221.9335479736327	-782.6194458007814	979.93798828125	192.127471923828	-768.6386718750001	936.7119140625	176.9203033447264	-757.8817138671876	929.6213989257812	226.6095581054686	-784.3118896484375	875.6965942382812	198.5223388671874	-758.2310180664062	677.4689331054688	3.187846899032453	-814.9833984375	638.9006958007812	43.56724929809555	-774.9025268554688	620.7550659179688	20.82762336730943	-881.6383056640625	342.8570251464843	27.34520530700667	-949.521240234375	304.3393554687499	41.06921768188459	-902.1032104492188	286.0193176269531	37.77033615112288	-1040.126342773438	132.3852081298828	136.6461639404295	-842.4429931640625	39.13232040405268	131.5166931152342	-889.5446166992188	32.44006729125971	32.18362808227523	-585.5303955078126	643.6209106445312	364.5836181640624	-512.0448608398439	615.2120361328125	377.6960449218749	-552.5025024414064	593.794921875	355.4483947753905	-457.1070556640626	317.990966796875	359.8823852539062	-396.3068237304688	270.0704345703125	365.0559082031249	-441.7528991699219	259.6781921386719	348.1498107910156	-364.1041259765626	45.74788284301756	257.9872436523437	-172.7865295410157	132.4751586914062	263.1736450195312	-201.6717681884766	87.63022613525389	362.4577941894531	-521.1306762695314	1303.2744140625	184.9970245361327	-510.5903625488282	1158.337524414062	178.586212158203	-609.4808349609376	1376.5244140625	12.19724750518788	-592.2684936523439	1231.558227539062	-93.93554687500011	-590.9193725585939	1168.9443359375	-114.9747390747071	-548.9624633789064	1183.447143554688	-93.98929595947276	-468.5375366210938	1000.206298828125	-145.1336059570313	-458.6178283691407	923.67431640625	-126.8646926879884	-423.9010009765626	958.6701049804688	-137.3202514648438	-342.8453674316407	894.8616333007812	-123.8151168823243	-320.8049316406251	932.4794921875	-58.0217018127442	-608.765075683594	1357.294799804688	354.801055908203	-653.705749511719	1212.194213867188	448.9461975097655	-641.662536621094	1148.21240234375	460.5755310058593	-691.8282470703127	1160.382446289062	466.7103881835936	-696.2352294921877	941.2645263671875	505.9601440429686	-655.4174804687501	885.9380493164062	544.4808349609374	-693.1096191406251	878.913818359375	513.0989379882811	-668.1762695312501	794.4349365234375	536.4147338867186	-618.0631713867189	773.0393676757812	475.5445556640624	
